<svg xmlns="http://www.w3.org/2000/svg" viewBox="0 0 32 32">
  <rect width="32" height="32" rx="6" fill="#6366f1"/>
  <g transform="translate(4, 6)">
    <path d="M12 2C9.5 0.5 6 0 3 0.5C2.4 0.6 2 1.1 2 1.7V16.3C2 17 2.6 17.5 3.3 17.4C6 17 9 17.3 11.3 18.7C11.7 19 12 19 12 19" fill="rgba(255,255,255,0.25)" stroke="white" stroke-width="1.5" stroke-linecap="round" stroke-linejoin="round"/>
    <path d="M12 2C14.5 0.5 18 0 21 0.5C21.6 0.6 22 1.1 22 1.7V16.3C22 17 21.4 17.5 20.7 17.4C18 17 15 17.3 12.7 18.7C12.3 19 12 19 12 19" fill="rgba(255,255,255,0.15)" stroke="white" stroke-width="1.5" stroke-linecap="round" stroke-linejoin="round"/>
    <line x1="12" y1="2" x2="12" y2="19" stroke="white" stroke-width="1.5"/>
  </g>
</svg>
